<svg width="960" height="620" viewBox="0 0 960 620" fill="none" xmlns="http://www.w3.org/2000/svg">
<defs>
  <linearGradient id="card" x1="0" y1="0" x2="960" y2="620" gradientUnits="userSpaceOnUse">
    <stop stop-color="#2A2F4A"/>
    <stop offset="1" stop-color="#1C2033"/>
  </linearGradient>
  <linearGradient id="accent" x1="182" y1="98" x2="744" y2="520" gradientUnits="userSpaceOnUse">
    <stop stop-color="#48C6EF"/>
    <stop offset="1" stop-color="#6F86D6"/>
  </linearGradient>
</defs>
<rect width="960" height="620" rx="36" fill="url(#card)"/>
<rect x="92" y="88" width="776" height="444" rx="28" fill="#262C45" stroke="rgba(255,255,255,0.15)"/>
<rect x="132" y="138" width="198" height="22" rx="11" fill="#FFFFFF" fill-opacity="0.18"/>
<rect x="132" y="188" width="294" height="18" rx="9" fill="#FFFFFF" fill-opacity="0.08"/>
<rect x="132" y="220" width="248" height="18" rx="9" fill="#FFFFFF" fill-opacity="0.08"/>
<rect x="132" y="252" width="226" height="18" rx="9" fill="#FFFFFF" fill-opacity="0.08"/>
<rect x="132" y="326" width="150" height="146" rx="22" fill="#20253C"/>
<rect x="304" y="326" width="150" height="146" rx="22" fill="#20253C"/>
<rect x="476" y="326" width="150" height="146" rx="22" fill="#20253C"/>
<rect x="648" y="326" width="172" height="146" rx="22" fill="#20253C"/>
<path d="M540 438L590 352L640 408L690 272L740 332" stroke="url(#accent)" stroke-width="16" stroke-linecap="round" stroke-linejoin="round"/>
<circle cx="540" cy="438" r="14" fill="#9BF1FF"/>
<circle cx="590" cy="352" r="14" fill="#9BF1FF"/>
<circle cx="640" cy="408" r="14" fill="#9BF1FF"/>
<circle cx="690" cy="272" r="14" fill="#9BF1FF"/>
<circle cx="740" cy="332" r="14" fill="#9BF1FF"/>
<rect x="660" y="138" width="140" height="140" rx="28" fill="url(#accent)" fill-opacity="0.18"/>
<path d="M709 181H750M709 208H750M709 235H750" stroke="#9BF1FF" stroke-width="12" stroke-linecap="round"/>
<circle cx="694" cy="181" r="8" fill="#FFFFFF"/>
<circle cx="694" cy="208" r="8" fill="#FFFFFF"/>
<circle cx="694" cy="235" r="8" fill="#FFFFFF"/>
</svg>