<svg width="560" height="560" viewBox="0 0 560 560" fill="none" xmlns="http://www.w3.org/2000/svg">
<defs>
  <linearGradient id="bg" x1="74" y1="52" x2="484" y2="510" gradientUnits="userSpaceOnUse">
    <stop stop-color="#48C6EF"/>
    <stop offset="1" stop-color="#6F86D6"/>
  </linearGradient>
  <radialGradient id="glow" cx="0" cy="0" r="1" gradientUnits="userSpaceOnUse" gradientTransform="translate(280 150) rotate(90) scale(210 210)">
    <stop stop-color="#FFFFFF" stop-opacity="0.95"/>
    <stop offset="1" stop-color="#FFFFFF" stop-opacity="0"/>
  </radialGradient>
</defs>
<rect width="560" height="560" rx="280" fill="#1F2338"/>
<circle cx="280" cy="280" r="226" fill="url(#bg)"/>
<circle cx="280" cy="166" r="148" fill="url(#glow)"/>
<circle cx="280" cy="222" r="76" fill="#F7FBFF" fill-opacity="0.95"/>
<path d="M176 392C176 330.144 226.144 280 288 280H272C333.856 280 384 330.144 384 392V402C384 413.046 375.046 422 364 422H196C184.954 422 176 413.046 176 402V392Z" fill="#F7FBFF" fill-opacity="0.95"/>
<circle cx="442" cy="168" r="34" fill="#9BF1FF" fill-opacity="0.32"/>
<circle cx="122" cy="370" r="24" fill="#FFFFFF" fill-opacity="0.18"/>
<path d="M114 118C150 94 182 82 226 76" stroke="#FFFFFF" stroke-opacity="0.55" stroke-width="7" stroke-linecap="round"/>
<path d="M346 478C384 470 416 452 444 420" stroke="#FFFFFF" stroke-opacity="0.45" stroke-width="7" stroke-linecap="round"/>
<text x="280" y="510" text-anchor="middle" font-family="Arial, Helvetica, sans-serif" font-size="30" fill="#FFFFFF" fill-opacity="0.92">Photo de profil</text>
</svg>